<svg xmlns="http://www.w3.org/2000/svg" xmlns:xlink="http://www.w3.org/1999/xlink" width="500" zoomAndPan="magnify" viewBox="0 0 375 374.999991" height="500" preserveAspectRatio="xMidYMid meet" version="1.0"><path fill="#4762d6" d="M 187.5 92.695312 C 172.710938 92.695312 160.722656 104.6875 160.722656 119.476562 L 160.722656 142.683594 L 214.28125 142.683594 L 214.28125 119.476562 C 214.277344 104.6875 202.289062 92.695312 187.5 92.695312 Z M 187.5 92.695312 " fill-opacity="1" fill-rule="nonzero"/><path fill="#4762d6" d="M 187.105469 178.394531 C 172.792969 178.597656 161.039062 190.257812 160.726562 204.570312 C 160.503906 214.730469 165.945312 223.632812 174.109375 228.355469 L 174.109375 245.339844 C 174.109375 252.734375 180.105469 258.726562 187.5 258.726562 C 194.894531 258.726562 200.886719 252.734375 200.886719 245.339844 L 200.886719 228.355469 C 208.890625 223.726562 214.277344 215.078125 214.277344 205.167969 C 214.277344 190.25 202.074219 178.175781 187.105469 178.394531 Z M 187.105469 178.394531 " fill-opacity="1" fill-rule="nonzero"/><path fill="#4762d6" d="M 187.5 0 C 83.945312 0 0 83.945312 0 187.5 C 0 291.054688 83.945312 375 187.5 375 C 291.054688 375 375 291.054688 375 187.5 C 375 83.945312 291.054688 0 187.5 0 Z M 285.691406 267.65625 C 285.691406 282.445312 273.699219 294.433594 258.910156 294.433594 L 116.089844 294.433594 C 101.300781 294.433594 89.308594 282.445312 89.308594 267.65625 L 89.308594 169.464844 C 89.308594 154.675781 101.300781 142.683594 116.089844 142.683594 L 133.941406 142.683594 L 133.941406 119.476562 C 133.941406 89.898438 157.921875 65.917969 187.5 65.917969 C 217.078125 65.917969 241.058594 89.898438 241.058594 119.476562 L 241.058594 142.683594 L 258.910156 142.683594 C 273.699219 142.683594 285.691406 154.675781 285.691406 169.464844 Z M 285.691406 267.65625 " fill-opacity="1" fill-rule="nonzero"/></svg>