<svg xmlns="http://www.w3.org/2000/svg" xmlns:xlink="http://www.w3.org/1999/xlink" width="500" zoomAndPan="magnify" viewBox="0 0 375 374.999991" height="500" preserveAspectRatio="xMidYMid meet" version="1.0"><path fill="#4762d6" d="M 187.488281 114.351562 C 147.117188 114.351562 114.335938 147.132812 114.335938 187.5 C 114.335938 227.867188 147.117188 260.648438 187.488281 260.648438 C 227.855469 260.648438 260.636719 227.867188 260.636719 187.5 C 260.636719 147.15625 227.855469 114.351562 187.488281 114.351562 Z M 187.488281 114.351562 " fill-opacity="1" fill-rule="nonzero"/><path fill="#4762d6" d="M 187.488281 76.253906 C 126.101562 76.253906 76.214844 126.140625 76.214844 187.527344 C 76.214844 248.910156 126.101562 298.796875 187.488281 298.796875 C 248.871094 298.796875 298.757812 248.910156 298.757812 187.527344 C 298.757812 126.140625 248.871094 76.253906 187.488281 76.253906 Z M 187.488281 277.09375 C 138.105469 277.09375 97.921875 236.910156 97.921875 187.527344 C 97.921875 138.144531 138.105469 97.960938 187.488281 97.960938 C 236.871094 97.960938 277.054688 138.144531 277.054688 187.527344 C 277.054688 236.910156 236.894531 277.09375 187.488281 277.09375 Z M 187.488281 277.09375 " fill-opacity="1" fill-rule="nonzero"/><path fill="#4762d6" d="M 187.488281 38.132812 C 105.109375 38.132812 38.121094 105.125 38.121094 187.5 C 38.121094 269.875 105.109375 336.867188 187.488281 336.867188 C 269.863281 336.867188 336.851562 269.875 336.851562 187.5 C 336.878906 105.125 269.890625 38.132812 187.488281 38.132812 Z M 187.488281 321.875 C 113.386719 321.875 53.109375 261.601562 53.109375 187.5 C 53.109375 113.398438 113.410156 53.148438 187.488281 53.148438 C 261.589844 53.148438 321.863281 113.425781 321.863281 187.527344 C 321.863281 261.628906 261.589844 321.875 187.488281 321.875 Z M 187.488281 321.875 " fill-opacity="1" fill-rule="nonzero"/><path fill="#4762d6" d="M 187.488281 0.0117188 C 84.09375 0.0117188 0 84.105469 0 187.5 C 0 290.894531 84.09375 374.988281 187.488281 374.988281 C 290.878906 374.988281 374.972656 290.894531 374.972656 187.5 C 375 84.105469 290.878906 0.0117188 187.488281 0.0117188 Z M 187.488281 366.660156 C 88.695312 366.660156 8.328125 286.292969 8.328125 187.5 C 8.328125 88.707031 88.695312 8.339844 187.488281 8.339844 C 286.28125 8.339844 366.644531 88.707031 366.644531 187.5 C 366.644531 286.292969 286.28125 366.660156 187.488281 366.660156 Z M 187.488281 366.660156 " fill-opacity="1" fill-rule="nonzero"/></svg>