<?xml version="1.0" standalone="no"?>
<!DOCTYPE svg PUBLIC "-//W3C//DTD SVG 20010904//EN"
 "http://www.w3.org/TR/2001/REC-SVG-20010904/DTD/svg10.dtd">
<svg version="1.0" xmlns="http://www.w3.org/2000/svg"
 width="765.000000pt" height="1365.000000pt" viewBox="0 0 765.000000 1365.000000"
 preserveAspectRatio="xMidYMid meet">
<metadata>
Created by potrace 1.10, written by Peter Selinger 2001-2011
</metadata>
<g transform="translate(0.000000,1365.000000) scale(0.100000,-0.100000)"
fill="#000000" stroke="none">
<path d="M3610 11019 c-167 -19 -484 -80 -519 -99 -11 -5 -28 -10 -39 -10 -23
0 -113 -26 -160 -46 -18 -8 -40 -14 -48 -14 -9 0 -30 -6 -47 -14 -18 -7 -52
-21 -77 -30 -25 -10 -58 -24 -73 -32 -16 -8 -33 -14 -39 -14 -5 0 -26 -7 -46
-16 -21 -8 -53 -22 -72 -31 -19 -8 -48 -21 -63 -29 -16 -8 -33 -14 -38 -14 -6
0 -54 -21 -107 -46 -53 -25 -115 -54 -137 -64 -69 -32 -177 -81 -263 -121 -45
-22 -86 -39 -91 -39 -5 0 -39 -13 -77 -29 -38 -16 -95 -40 -127 -52 -32 -13
-63 -29 -69 -37 -14 -17 -12 -3425 2 -3537 5 -40 16 -105 25 -146 9 -41 20
-94 25 -119 23 -118 116 -363 204 -538 106 -211 193 -341 379 -570 52 -64 238
-249 312 -310 44 -37 86 -73 93 -80 37 -34 280 -186 377 -235 415 -209 878
-282 1272 -201 306 62 681 253 951 482 483 410 790 887 947 1472 9 36 21 76
26 90 5 14 13 58 19 99 6 40 12 76 14 80 3 4 11 96 20 206 12 163 16 488 20
1746 l5 1546 -23 22 c-12 11 -25 21 -29 21 -4 0 -63 27 -132 60 -69 33 -130
60 -135 60 -6 0 -79 34 -164 75 -85 41 -157 75 -162 75 -4 0 -30 11 -58 24
-125 58 -187 86 -271 121 -49 21 -103 43 -120 50 -37 16 -289 100 -365 121
-30 9 -69 20 -86 25 -16 5 -50 13 -75 18 -24 6 -66 15 -94 21 -115 25 -144 31
-215 41 -202 28 -515 37 -670 18z m603 -64 c123 -17 242 -39 327 -60 30 -8 91
-24 135 -35 202 -50 357 -103 560 -190 95 -40 138 -60 302 -136 40 -18 100
-45 134 -60 72 -30 357 -156 409 -181 19 -9 45 -26 58 -37 l22 -20 -2 -1140
c-1 -628 -5 -1384 -9 -1681 -6 -485 -9 -552 -28 -655 -24 -133 -79 -360 -91
-375 -4 -5 -11 -26 -15 -45 -18 -85 -142 -364 -219 -493 -25 -43 -46 -81 -46
-84 0 -15 -135 -202 -219 -303 -209 -251 -483 -490 -711 -620 -336 -191 -642
-283 -950 -284 -183 -1 -419 40 -630 111 -147 49 -387 163 -490 233 -274 185
-545 448 -726 705 -78 111 -118 175 -167 266 -85 161 -127 246 -127 261 0 8
-4 18 -9 23 -24 25 -100 268 -126 405 -9 47 -22 103 -28 125 -8 29 -12 525
-14 1789 -3 1624 -2 1750 13 1768 10 10 21 18 25 18 9 0 300 127 459 200 551
253 677 302 1035 404 88 25 283 65 440 89 129 21 543 22 688 2z"/>
<path d="M3645 10524 c-184 -11 -623 -107 -750 -164 -11 -5 -80 -34 -154 -65
-73 -31 -258 -118 -410 -194 -152 -75 -306 -150 -343 -166 -37 -16 -71 -36
-75 -45 -12 -25 -16 -2825 -4 -2975 23 -281 102 -535 241 -776 53 -91 182
-287 207 -314 10 -11 49 -56 88 -100 205 -236 423 -409 665 -529 202 -99 387
-150 641 -176 171 -18 409 8 559 60 151 52 321 133 430 205 165 109 397 323
534 492 200 249 378 623 431 908 9 50 22 110 27 135 7 30 12 545 15 1561 l4
1517 -28 19 c-66 47 -537 290 -676 349 -293 125 -375 152 -652 209 -184 38
-543 62 -750 49z m625 -83 c332 -52 541 -120 915 -296 170 -81 492 -257 505
-277 14 -20 15 -187 10 -1533 -5 -1358 -7 -1517 -22 -1575 -9 -36 -24 -99 -33
-140 -59 -260 -196 -548 -368 -769 -82 -105 -87 -111 -217 -242 -119 -120
-268 -240 -375 -305 -61 -37 -225 -117 -282 -138 -24 -9 -60 -22 -80 -30 -131
-47 -365 -81 -508 -71 -317 20 -540 86 -822 243 -82 45 -270 191 -360 278 -70
68 -109 111 -245 273 -63 74 -200 293 -254 406 -68 141 -86 186 -113 285 -36
130 -42 157 -62 300 -19 142 -20 175 -13 1570 3 784 8 1429 11 1434 3 4 71 40
152 78 80 38 223 108 316 155 94 47 204 100 245 118 41 18 95 41 120 53 187
84 451 157 675 186 66 9 134 18 150 20 17 2 143 3 280 1 184 -3 283 -9 375
-24z"/>
<path d="M3745 10124 c-423 -34 -787 -150 -1140 -364 -66 -40 -149 -90 -185
-111 -36 -21 -78 -49 -95 -63 l-30 -24 0 -1369 c0 -1289 1 -1372 18 -1443 10
-41 25 -92 33 -112 8 -21 21 -57 30 -80 126 -337 358 -648 649 -869 90 -69
245 -157 315 -179 14 -5 50 -18 80 -29 139 -53 223 -66 435 -65 207 0 253 6
395 54 207 70 393 187 577 364 227 217 382 477 486 811 36 116 39 233 46 1594
3 735 4 1343 3 1352 -9 42 -331 233 -583 347 -93 42 -302 106 -449 138 -166
35 -448 58 -585 48z m340 -68 c173 -17 292 -40 455 -90 160 -49 347 -127 475
-200 141 -79 246 -146 273 -172 l33 -33 -6 -303 c-2 -167 -7 -791 -10 -1387
-6 -1143 -5 -1106 -50 -1252 -8 -26 -15 -55 -15 -66 0 -11 -7 -28 -15 -39 -8
-10 -15 -25 -15 -33 0 -24 -116 -246 -174 -335 -135 -204 -371 -422 -581 -535
-22 -12 -47 -26 -55 -30 -14 -8 -39 -18 -137 -55 -77 -28 -162 -46 -300 -61
-131 -15 -152 -15 -265 0 -148 19 -213 37 -356 94 -149 61 -340 188 -470 315
-96 92 -273 316 -305 386 -4 8 -16 29 -27 45 -35 55 -92 178 -135 295 -23 61
-44 152 -61 260 -15 96 -16 217 -9 1379 5 935 10 1279 18 1293 30 47 391 259
577 338 409 173 734 225 1155 186z"/>
<path d="M3715 9233 c-188 -22 -328 -57 -449 -113 -36 -16 -81 -36 -100 -44
-19 -8 -67 -33 -106 -56 l-70 -41 0 -1439 c0 -950 3 -1441 10 -1445 6 -3 15 6
20 20 6 17 10 517 10 1421 0 1348 1 1395 19 1413 10 10 46 32 79 49 34 17 69
35 79 40 21 11 52 25 108 47 215 87 403 113 655 89 184 -17 268 -40 424 -113
44 -21 90 -41 102 -45 11 -3 31 -17 43 -30 l22 -24 2 -868 c2 -862 2 -869 22
-869 20 0 20 8 25 880 3 484 3 886 1 892 -6 21 -280 151 -386 183 -140 42
-386 68 -510 53z"/>
<path d="M3910 7164 c-62 -53 -74 -108 -40 -180 38 -78 125 -97 186 -41 66 61
68 153 3 212 -50 45 -102 48 -149 9z"/>
<path d="M4562 6743 c3 -350 3 -358 23 -358 20 0 20 7 20 355 l0 355 -23 3
-22 3 2 -358z"/>
<path d="M2918 3720 c-1289 -5 -1345 -6 -1315 -36 10 -10 4621 -4 4631 6 6 6
4 16 -4 25 -15 18 33 18 -3312 5z"/>
<path d="M1078 3146 c-20 -12 -45 -30 -56 -39 -31 -28 -82 -131 -82 -165 0
-17 -5 -43 -10 -57 -7 -18 -7 -56 0 -118 19 -161 83 -257 195 -293 47 -14 57
-14 102 -1 28 9 69 28 92 43 l41 27 41 -32 c29 -24 47 -31 63 -27 44 11 40 36
-15 85 l-51 46 22 63 c19 55 22 79 18 170 -4 89 -9 117 -32 167 -31 68 -46 87
-100 126 -35 26 -46 29 -115 28 -59 -1 -84 -6 -113 -23z m192 -66 c19 -13 44
-47 59 -79 23 -51 26 -68 26 -178 0 -144 -6 -156 -61 -130 -34 17 -38 17 -61
1 l-25 -16 42 -43 c49 -50 48 -68 -6 -91 -26 -11 -51 -13 -85 -9 -41 6 -55 14
-83 46 -86 101 -95 356 -15 457 10 14 34 36 52 49 40 31 108 28 157 -7z"/>
<path d="M3693 3141 c-61 -44 -83 -87 -83 -160 0 -52 4 -68 26 -96 27 -36 75
-68 114 -78 90 -21 167 -67 186 -112 18 -45 10 -77 -32 -120 -31 -33 -38 -35
-96 -35 -61 0 -65 2 -116 46 -53 46 -77 52 -95 23 -14 -22 14 -57 77 -101 46
-31 54 -33 131 -32 67 0 88 4 119 23 124 77 122 252 -4 316 -69 35 -112 53
-142 59 -37 8 -108 77 -108 105 0 32 35 96 64 114 45 30 104 22 169 -23 50
-33 61 -37 78 -27 24 15 24 28 -2 61 -36 45 -89 66 -172 66 -66 0 -78 -3 -114
-29z"/>
<path d="M4900 3060 c-8 -5 -27 -10 -41 -10 -15 0 -32 -7 -39 -15 -7 -8 -18
-15 -24 -15 -18 0 -80 -70 -104 -118 -33 -64 -31 -203 3 -275 25 -55 68 -100
122 -130 47 -26 185 -24 238 4 53 28 85 58 85 80 0 27 -37 34 -68 13 -85 -58
-157 -70 -210 -37 -46 29 -102 86 -102 106 0 10 -7 41 -16 68 -16 47 -16 53 0
85 9 19 16 45 16 59 0 16 17 38 52 69 50 44 55 46 114 46 43 0 65 -5 74 -15 7
-8 20 -15 28 -15 9 0 30 -14 47 -30 l31 -30 24 25 c19 20 21 27 11 39 -22 27
-115 83 -146 89 -16 3 -41 8 -55 12 -14 3 -32 1 -40 -5z"/>
<path d="M2648 3053 c-20 -2 -42 -11 -48 -19 -7 -8 -18 -14 -25 -14 -16 0 -95
-78 -95 -94 0 -7 -6 -18 -12 -24 -16 -16 -37 -158 -26 -175 4 -7 8 -26 8 -42
0 -58 60 -145 129 -188 30 -18 49 -21 122 -20 72 0 95 5 130 24 47 27 85 71
75 88 -9 13 -66 15 -66 2 0 -5 -18 -18 -40 -30 -57 -29 -140 -29 -183 2 -97
68 -132 198 -84 307 27 61 38 72 94 101 62 32 126 20 208 -37 50 -34 52 -35
69 -9 15 23 15 25 -21 60 -20 19 -42 35 -50 35 -8 0 -21 7 -29 15 -9 8 -26 15
-38 15 -13 0 -36 2 -52 4 -16 2 -46 1 -66 -1z"/>
<path d="M1632 3038 c-9 -9 -12 -69 -12 -210 0 -176 2 -203 19 -236 78 -153
279 -179 383 -50 l35 43 7 205 c8 226 2 264 -37 258 -22 -3 -22 -5 -27 -213
-5 -219 -9 -240 -54 -276 -27 -22 -100 -32 -148 -19 -27 8 -47 23 -68 52 l-30
41 0 197 c0 201 -3 220 -40 220 -9 0 -21 -5 -28 -12z"/>
<path d="M2244 3039 c-9 -16 -20 -387 -14 -481 l5 -73 30 0 30 0 0 280 c0 279
0 280 -22 283 -11 2 -25 -2 -29 -9z"/>
<path d="M3057 3043 c-4 -3 -7 -129 -7 -279 0 -264 1 -273 20 -279 11 -3 29
-3 40 0 18 6 20 15 20 87 l0 81 54 54 c67 67 76 64 131 -44 69 -135 102 -183
127 -183 13 0 30 5 38 10 18 11 14 18 -98 209 l-73 124 26 37 c15 21 51 66 81
101 30 35 53 68 51 73 -2 6 -19 12 -38 14 -38 3 -50 -7 -134 -113 -63 -79
-138 -156 -150 -152 -6 2 -12 54 -15 126 -4 93 -8 124 -20 131 -18 11 -44 13
-53 3z"/>
<path d="M4156 3041 c-3 -4 -8 -125 -12 -267 -7 -239 -6 -261 10 -277 16 -16
38 -17 204 -15 l187 3 0 25 0 25 -145 2 c-205 4 -191 -3 -188 96 l3 82 126 6
c70 3 132 9 138 13 14 9 14 53 0 61 -6 4 -63 7 -127 7 -64 0 -122 4 -128 9
-14 12 -6 161 10 171 6 4 80 8 164 8 l152 0 0 30 0 30 -194 0 c-107 0 -197 -4
-200 -9z"/>
<path d="M5277 3044 c-4 -4 -7 -98 -7 -209 0 -181 2 -205 20 -240 38 -75 64
-94 167 -125 77 -23 172 16 228 94 l30 41 3 217 3 217 -26 7 c-14 3 -29 4 -32
0 -4 -3 -8 -95 -9 -204 -1 -179 -4 -201 -22 -231 -32 -52 -68 -71 -137 -71
-62 1 -76 7 -120 59 -18 21 -20 42 -25 235 l-5 211 -30 3 c-17 2 -34 0 -38 -4z"/>
<path d="M5896 3042 c-3 -5 -8 -130 -12 -279 -7 -254 -6 -270 11 -277 10 -3
26 -4 36 -1 17 6 19 18 19 114 0 70 4 111 12 119 14 14 116 16 152 2 24 -9 46
-41 114 -163 12 -22 30 -49 39 -59 20 -22 52 -23 60 -3 5 14 -57 147 -93 200
-22 31 -17 52 21 81 98 75 101 189 5 249 -38 24 -46 25 -199 25 -88 0 -162 -4
-165 -8z m335 -81 c17 -17 29 -40 29 -55 0 -37 -48 -85 -95 -96 -58 -14 -189
-12 -203 2 -12 12 -17 134 -6 162 5 13 26 16 126 16 119 0 120 0 149 -29z"/>
<path d="M6476 3042 c-4 -7 -9 -362 -7 -499 1 -59 13 -63 205 -63 120 0 176 4
184 12 16 16 15 23 -4 43 -14 14 -38 16 -158 14 -78 -1 -147 1 -154 5 -8 4
-12 34 -12 81 0 93 3 95 143 95 85 0 109 3 126 18 20 16 21 18 5 40 -15 22
-21 23 -136 21 -66 0 -123 3 -128 7 -4 5 -4 45 -1 89 l6 80 156 3 c163 3 190
10 175 47 -4 13 -36 15 -200 15 -107 0 -197 -4 -200 -8z"/>
</g>
</svg>
